<?xml version="1.0"?>
<svg width="512" height="512" xmlns="http://www.w3.org/2000/svg" xmlns:svg="http://www.w3.org/2000/svg" xmlns:se="http://svg-edit.googlecode.com" class="svg-inline--fa fa-user-alt fa-w-16" data-icon="user-alt" data-prefix="fas">
 <g class="layer">
  <title>Layer 1</title>
  <path d="m256,288c79.5,0 144,-64.5 144,-144s-64.5,-144 -144,-144s-144,64.5 -144,144s64.5,144 144,144zm128,32l-55.1,0c-22.2,10.2 -46.9,16 -72.9,16s-50.6,-5.8 -72.9,-16l-55.1,0c-70.7,0 -128,57.3 -128,128l0,16c0,26.5 21.5,48 48,48l416,0c26.5,0 48,-21.5 48,-48l0,-16c0,-70.7 -57.3,-128 -128,-128z" fill="#ffffff" id="svg_1"/>
 </g>
</svg>